/* XPM */
static char *_cac2b930b234513d155bd4e9bc71364qcIKS5i4pinuhmTh[] = {
/* columns rows colors chars-per-pixel */
"133 131 84 1 ",
"  c white",
". c #ED1C24",
"X c #FCD7A8",
"o c #181210",
"O c black",
"+ c #EC0000",
"@ c #00110F",
"# c #FFDCAC",
"$ c #F21C25",
"% c #F51C25",
"& c #FFDFAE",
"* c #151210",
"= c #160F0D",
"- c #FFE4B2",
"; c #090000",
": c #0C0608",
"> c #EC0009",
", c #483E31",
"< c #08120F",
"1 c #ED151E",
"2 c #D8D7D7",
"3 c gray89",
"4 c #949393",
"5 c gray96",
"6 c #D01A21",
"7 c #101210",
"8 c #D81B22",
"9 c #E9E9E9",
"0 c #191717",
"q c #B8B7B7",
"w c #E11B23",
"e c #C51A20",
"r c #CCCBCB",
"t c #761518",
"y c #571414",
"u c #6E1517",
"i c #C1C0C0",
"p c #831619",
"a c #8E171A",
"s c #FBD4D5",
"d c #9B171B",
"f c #F69C9E",
"g c #ADACAC",
"h c #F7ACAE",
"j c #1E1210",
"k c #FEF3F3",
"l c #F6A2A4",
"z c #BC191F",
"x c #534738",
"c c #D7B890",
"v c #372E25",
"b c #5F513F",
"n c #626161",
"m c #282625",
"M c #A1A09F",
"N c #494848",
"B c #301312",
"V c #441313",
"C c #611416",
"Z c #AE181D",
"A c #F8B8BA",
"S c #F9C2C4",
"D c #F16063",
"F c #271211",
"G c #EF4A4F",
"H c #F38386",
"J c #3B3837",
"K c #FCE5E6",
"L c #EE2D33",
"P c #767574",
"I c #848382",
"U c #F27779",
"Y c #3A1312",
"T c #8B775D",
"R c #E8C79B",
"E c #A18A6C",
"W c #73614C",
"Q c #B79C7A",
"! c #28201A",
"~ c #555454",
"^ c #EF3C41",
"/ c #AC7475",
"( c #F79193",
") c #6F0308",
/* pixels */
"                                                                                                                                     ",
"                                                            5932riqqir2395                                                           ",
"                                                       3i4PnJ0OOOOOOOOOOm~nIM29                                                      ",
"                                                  5rMn;OOOO;==ooooooooo==;;OOOOmIg2                                                  ",
"                                               2gn0OO;=oooooooooooooooooooooooo=OO:J4r5                                              ",
"                                            5q~*OO=ooooooooo*7<@@@@@@@@<*ooooooooo=;OON43                                            ",
"                                          2P;O;=oooooo*7@@@@@BCutadaptuVo@@@@<7ooooooo;OONq                                          ",
"                                        qNOO=ooooo*7@@jytZ6.%%%%%%$$%%%%%%weauV@@@7oooooo;O*49                                       ",
"                                      qNO;ooooo*@@FVaew.%$$................$%$w8ZtY<@7ooooo=Om49                                     ",
"                                    r~O;ooooo<@@CZ8%%$......11>++++++++>11......%%.eaB@@*oooo=OmM                                    ",
"                                  3nO;oooo*@@yZ.%$......1>+1GU(ASSssSSh(UG1+>1.....$%%eto@7oooo=Omi                                  ",
"                                 MmOoooo*@ot6.$.......1>^USkk            kKSUL>1......$$8aB@7oooo;On9                                ",
"                               3nO=oooo@@t6$$.......1>DSk                    KAG+1.......%wdF@*ooo=Omq                               ",
"                              MOOoooo<@C8%$.......1+Ds                          sD+1.......%.dj@oooo=On5                             ",
"                            9nO=ooo*@ye%$........+Ds                              sG+........%wa@<ooooOm2                            ",
"                           2NOoooo@FZ.$........11f                                  (>1........%6V@*ooo;;g                           ",
"                          iO;ooo*@Cw%.........+^s                                    sL>........$$d@<ooo=O4                          ",
"                         MO=ooo<@Z%..........+U                                        D+.........%8V@ooooOn5                        ",
"                        4O=ooo@Ve%..........>(                                          H+.........$.p@*oooO~9                       ",
"                       IO=ooo@uw$..........+(                                            U+..........$Z@*oooOJ5                      ",
"                      IOooo*@a%...........+H                                              U>..........%e7<oooOJ5                     ",
"                     IOooo*@d%...........>D                                               kD>..........%6B<oooON5                    ",
"                    MO=oo*@Z$...........1^k                                                KL1..........$8F<oooON                    ",
"                   gOooo*@z%............>s                                                  s+...........$wY@oooOn                   ",
"                  iOooo*7z%............+f                                                    H>...........$wy@oooOI                  ",
"                 2m;oo*@Z$............1L                                                     KL1...........$8F7oo=Og                 ",
"                5JOooo@d%.............>A                                                      h+............$6@*oo=O3                ",
"                nOooo@a%.............1G                                                       kG1............%z@*oo;m5               ",
"               gOooo@u$..............+A                                                        l+.............$d@oooOP               ",
"              3*=oo7Yw$.............1Lk                                                        k+..............$u@oooOg              ",
"              NOoo*@8$..............>H                                                          U>..............%B<oo=O3             ",
"             4Oooo@d%...............+s                                                          A>..............$6j7oo;N             ",
"            9O=oo@C$...............1>                                                           k................%d@oooOg            ",
"            nOoo7B8$...............1U                                                            ^1...............$u@oo=03           ",
"           qOoooOz%................>l                                                            (>...............$w;*ooOP           ",
"          5J;ooOPG1................>S                                                            S+................%/Ooo=;r          ",
"          gOoo=O9(>................1K                                                            s>...............11 ~Ooo;J          ",
"          O=ooO4 s>.................k                                                            K................1G 2O=ooOq         ",
"         MOoo=J9 KL1..............1L                                                             K^1..............>f  POoo;N5        ",
"        5m=ooOM   G1..............1L                                                             k^1..............>s  9O=ooOi        ",
"        MOoo=m    H>..............1L                                                             kG1.............1LK   IOoo;N        ",
"       5J;ooOg    l+..............1L                                                             k^1.............1Gk   9O=ooOr       ",
"       iOoo==     s+..............1L                                                             KL1.............1D     IOooOn       ",
"       N;ooO4     s+................k                                                            K...............>H     2:=o=O9      ",
"      3Ooo=m3     K................1K                                                            s>..............>(      POooO4      ",
"      4OooOP      kL1..............>A                                                            A+..............+l      rOoo=J      ",
"      J=ooOr      k^1..............>l                                                            (>..............+A      5J=ooOr     ",
"     rOoo;~5      kG1..............1U                                                            ^1..............+S       4OooOP     ",
"     IOooOM       kG1...............>                                                           k1...............+S       9Ooo=J9    ",
"    5N;ooO3       kG1...............+s                                                          A>...............+S        J;ooOr    ",
"    2Ooo;J        kG1...............>H                                                          U1...............+A        MOooOP    ",
"    4OooO4        k^1...............1Lk                                                        k+................+A        20=o=J    ",
"    ~;o=;r        kL1................+h                                                        f+................+l         J;o=:2   ",
"   50=o=J5        k..................1^                                                       k^1................>(         POooOg   ",
"   iOooOn         K+..................>h                                                      f+.................>U         rOooOP   ",
"   MOooOg         s+..................11k                                                    KL1.................1D         3;=o=m   ",
"   POooO2         h+...................>H                                                    D>..................1Gk        5N;ooO5  ",
"   m=o=m9         H>....................+S                                                  A+...................1LK         POooOr  ",
"  9Ooo;~5         D1....................1^K                                                K.1....................>s         4OooOM  ",
"  2OooOP         KL1.....................>G                                               kG>.....................+l         rOooOI  ",
"  gOooO4         s>.......................+U                                              D>......................1D         3Ooo;n  ",
"  4OooOi         f+........................+U                                            U>.......................1.          Ooo;~5 ",
"  IOooO2         G1.........................+U                                         kU+.........................+s         ;=o=m9 ",
"  n;ooO9        K>...........................+Dk                                      kG+..........................>(         N;o=;3 ",
" 5n;ooO         l>............................>LS                                    S>1...........................1^         POooO3 ",
" 5N;ooO         D1.............................11(                                 kH11.............................+s        POooO2 ",
" 9J=o=;        K+................................+GS                              S^>...............................>U        IOooOr ",
" 9J=o=m        U>.................................1+Gs                          SG+1..................................K       4OooOi ",
" 9J=o=m       KL1...................................1>GhK                    KhG>1...................................+f       MOooOq ",
" 9J=o=o       (+......................................1+.Dls              sfD.+1.....................................1.k      4OooOq ",
" 5J=o=O      k1.........................................11++1DHlhASAAhlHD+++1.........................................>l      4OooOi ",
" 5N;o=O      U>..............................................1>>>>>>>>>>1..............................................+k     4OooOr ",
" 5n;ooO     K+.........................................................................................................>H     POooO2 ",
"  n;ooO     D1..........................................................................................................+s    POooO3 ",
"  POooO2   f+...........................................................................................................1^k   J;o==3 ",
"  4OooOi  s11............................................................................................................>U   O=o=J5 ",
"  MOooOM k.1..............................................................................................................+A 5Ooo;n  ",
"  rOooOP G>................................................................................................................+S2OooOP  ",
"  9Ooo;~U>.................................................................................................................1L/OooO4  ",
"   0=o*Fw...................................................................................................................1)<ooOr  ",
"   n;oo@z$.............................................$$%%%%$.........$%%%%$$..............................................wB*ooO5  ",
"   MOoo@t%........................................$%$w6zZauyVBo<<<<<<<jBVCtdZe8.$%$........................................$z@oo;N   ",
"   2:=o7B.....................................$$.wzaCYj<@@@<<7*********7<@@@@*FVtd6w$$.....................................%C@ooOM   ",
"    J;oo@z$................................$%$zpV@@@<7*oooooooooooooooooooooo**7@@@YuZ.%$..................................8o*o=:3   ",
"    MOoo<y%..............................%.zC@@@7*ooooooo===::::::;:::::===oooooooo7<@@yZw%$..............................%t@ooO~    ",
"    3m=oo@6$..........................$$6aY@@ooooooo=;OOOo!v,,xbbbbbbxx,v!:OOO:=ooooooo<@Ft6.$...........................$w@oooOi    ",
"     POoo@t$........................$%6t@@7oooo=:OOOoxTQQcRRXXX&&&&&&#XXRRcQEWvOOOO:ooooo*@@C6$$.........................$p@oo;N5    ",
"     2Oooo@e$......................%6y@@oooo=OOO,TQR&&&&##XXXXXXXXXXXXXXXX###&#XcEWvOO:=oooo<@Ce%.......................$e@oooOq     ",
"      nOoo<y.....................%wt@@ooo=OOvWQRX##XXXXXXXXXXXXXXXXXXXXXXXXXXXXX###XcEx;O:oooo<@tw$......................V<oo;N      ",
"      2O=oo@d%..................$zY@*oo=O=xQR##XXXXXXXXXXXXXXXXXXXXXXXXXXXXXXXXXXXXX#&XcTvOOooo*@YZ$...................%a@oooOi      ",
"       POoo*@6$...............$.p@7oo=OOTc&#XXXXXXXX&&&XXXXXXXXXXXXXXXXXXXXXXX#&&#XXXXXX&#QbOOooo7@t%$................$e@oooOn       ",
"       9m=oo7Bw$.............$8Y@oo=O!EX##XXXXXXXXXRWOWXXXXXXXXXXXXXXXXXXXXXX#cv!Q#XXXXXXX#&RWOOooo@V8$..............$87*oo=03       ",
"        qOooo@C.............$8j@oo::TR&XXXXXXXXXXX#bm4OT&XXXXXXXXXXXXXXXXXXXXR,JIOQ#XXXXXXXX##cbO=oo@Y6$............$wy@oooOg        ",
"         POooo@u%..........$8F<ooOvc&XXXXXXXXXXXX#cO2 g;XXXXXXXXXXXXXXXXXXXX#Q:9 4=&XXXXXXXXXX#&QOOoo<<8$...........$y@oooOP         ",
"          JOooo@C$$.......$8F<o=OT##XXXXXXXXXXXXX&TN  3:c#XXXXXXXXXXXXXXXXXX&TN  3OR#XXXXXXXXXXX&XWO=o776$........$.V@oooOJ          ",
"          3J;ooo@uw$.......y@o:=Q#XXXXXXXXXXXXXXX&v~  9mQ#XXXXXXXXXXXXXXXXXX-bn  9OQ#XXXXXXXXXXXXXXQO:o<Y8$......$8y@ooo;J3          ",
"           r*=ooo@V8%....$d@o=OQ&XXXXXXXXXXXXXXXX#O~  9mQ#XXXXXXXXXXXXXXXXXX-,P  9OT#XXXXXXXXXXXXXX&Q=:o@u%.....%6V@ooo;02           ",
"            2O;ooo<@Z%$..$t@oOc&XXXXXXXXXXXXXXXXX#O~  3OQ#XXXXXXXXXXXXXXXXXX&vN  3OT#XXXXXXXXXXXXXXX&c!=<V%...$%d@<ooo;O2            ",
"             2mOooo*@ye%$$C<oO-XXXXXXXXXXXXXXXXXXROm3 gOE#XXXXXXXXXXXXXXXXXXXv09 MOW#XXXXXXXXXXXXXXXX#WO7B...%6C@*ooo;m2             ",
"              2JOoooo@@t8$y<oO&XXXXXXXXXXXXXXXXX#cOO~MmOE#XXXXXXXXXXXXXXXXXXXvO~MmOWXXXXXXXXXXXXXXXXX#WO*j$$wpo@ooooOJ2              ",
"               5nO=oooo@@uY*oO-XXXXXXXXXXXXXXXXX#cOo;O=OE#XXXXXXXXXXXXXXXXXX#v:;O=:bXXXXXXXXXXXXXXXXXXWO*j8p@@*ooo=O~5               ",
"                 g=O=oooo<*ooO&XXXXXXXXXXXXXXXXX#cOooooOE&XXXXXXXXXXXXXXXXXXXv:ooo:xXXXXXXXXXXXXXXXXX#W;o*@@*ooooOO4                 ",
"                  3nO;oooooooOXXXXXXXXXXXXXXXXXX#cOooooOE#XXXXXXXXXXXXXXXXXXXv:ooo:xXXXXXXXXXXXXXXXXXXb:ooooooo:O~2                  ",
"                    iNO;oooooOR#XXXXXXXXXXXXXXXX#cOooooOE#XXXXXXXXXXXXXXXXXX#,:ooo:bXXXXXXXXXXXXXXXXXXx:ooooo=Omg                    ",
"                      r~OO=ooOc#XXXXXXXXXXXXXXXXXROooooOE#XXXXXXXXXXXXXXXXXX&,:ooo:bXXXXXXXXXXXXXXXXXRv=oo=OOJg                      ",
"                        24J=oOQ#XXXXXXXXXXXXXXXXXXOooooOQ#XXXXXXXXXXXXXXXXXX-x:ooo:bXXXXXXXXXXXXXXXXXRO=oO0Pi5                       ",
"                          MOoOT#XXXXXXXXXXXXXXXXXXOooooOQ#XXXXXXXXXXXXXXXXXX-bOoooOT#XXXXXXXXXXXXXXX#cOoOn3                          ",
"                          iOo:bXXXXXXXXXXXXXXXXXX&O=oooOc#XXXXXXXXXXXXXXXXXX&WOoooOT#XXXXXXXXXXXXXXX&EOoOg                           ",
"                          3O==oRXXXXXXXXXXXXXXXXX&v:oo=:RXXXXXXXXXXXXXXXXXXX&EOoooOE#XXXXXXXXXXXXXXX&WOoOr                           ",
"                           :=oOQ#XXXXXXXXXXXXXXXX&WOoo:!XXXXXXXXXXXXXXXXXXXX#QOoooOc#XXXXXXXXXXXXXXXRv:=m3                           ",
"                           ~;oOW&XXXXXXXXXXXXXXXX#QOooOW&XXXXXXXXXXXXXXXXXXXXR!=o=:#XXXXXXXXXXXXXXX#c:o;N                            ",
"                           MOo=!RXXXXXXXXXXXXXXXXXX,OOoRXXXXXXXXXXXXXXXXXXXXX#EO:OE&XXXXXXXXXXXXXXX-WOoOI                            ",
"                           2o=oOE&XXXXXXXXXXXXXXXX#RWbc#XXXXXXXXXXXXXXXXXXXXXXXTxEXXXXXXXXXXXXXXXXXR:=oOr                            ",
"                            ~;o:!&XXXXXXXXXXXXXXXXXX###XXXXXXXXXXXXXXXXXXXXXXXX&##XXXXXXXXXXXXXXXX#EOo=*5                            ",
"                            gOooOE#XXXXXXXXXXXXXXXXXXXXXXXXXXXXXXXXXXXXXXXXXXXXXXXXXXXXXXXXXXXXXX#R==oOI                             ",
"                            5o=o=Oc#XXXXXXXXXXXXXXXXXXXXXXXXXXXXXXXXXXXXXXXXXXXXXXXXXXXXXXXXXXXXX#WOooO2                             ",
"                             4OooOxXXXXXXXXXXXXXXXXXXXXXXXXXXXXXXXXXXXXXXXXXXXXXXXXXXXXXXXXXXXXX&EOoo;N                              ",
"                              O=ooOb#XXXXXXXXXXXXXXXXXXXXXXXXXXXXXXXXXXXXXXXXXXXXXXXXXXXXXXXXXX&QO=ooOr                              ",
"                              qO=ooOxX#XXXXXXXXXXXXXXXXXXXXXXXXXXXXXXXXXXXXXXXXXXXXXXXXXXXXXXX#QO=ooOP                               ",
"                               POoooOxc#XXXXXXXXXXXXXXXXXXXXXXXXXXXXXXXXXXXXXXXXXXXXXXXXXXXX#XEO=oo;J9                               ",
"                               5NOoooOOTX&XXXXXXXXXXXXXXXXXXXXXXXXXXXXXXXXXXXXXXXXXXXXXXXX#&cxO=oo=Or                                ",
"                                5JOooo=OOTc#&#XXXXXXXXXXXXXXXXXXXXXXXXXXXXXXXXXXXXXXXXX#&XQxO:ooo=Oq                                 ",
"                                 9NOoooo=O=xERX&#XXXXXXXXXXXXXXXXXXXXXXXXXXXXXXXXXX#&#RcTvO;oooo:Og                                  ",
"                                  5IO;oooo=:OOxTQR&&&###XXXXXXXXXXXXXXXXXXXXX####&&cEWvOO=oooooOOr                                   ",
"                                    rJO;oooooo:OOO:bTQQcRXX#------------&XXRRcQEW,OOOO=ooooo=OOP5                                    ",
"                                     5gNOO=ooooooo=:OOO:o!vv,,,,,xx,,,,,,v!!oOOOO:ooooooo=;O*P2                                      ",
"                                       5rPmOO;ooooooooo====:::::::::::::::===ooooooooo=OO:NM2                                        ",
"                                           i4NOOO;=oooooooooooooooooooooooooooooo=;OOO0Pg3                                           ",
"                                              9qInJOOOOO;=========o=========;OOOOm~Ig3                                               ",
"                                                  93rqInNJmm00000*OO*0000mmJNn4q295                                                  ",
"                                                         599222222rr2222399                                                          "
};
